<svg xmlns="http://www.w3.org/2000/svg" viewBox="36 56 2260 681" fill="currentColor">
<path transform="translate(0.000000,864.000000) scale(0.100000,-0.100000)" d="M4095 7859 c-38 -11 -124 -24 -190 -28 -81 -6 -146 -18 -200 -35 -65 -21 -100 -26 -187 -26 -128 0 -322 -45 -453 -105 -44 -20 -123 -48 -175 -61 -55 -14 -152 -52 -230 -89 -121 -58 -145 -66 -229 -75 -110 -12 -167 -35 -226 -89 -56 -52 -86 -66 -169 -80 -82 -14 -90 -18 -153 -72 -26 -23 -86 -66 -133 -97 -119 -77 -191 -133 -296 -232 -50 -47 -115 -108 -146 -135 -40 -37 -68 -75 -103 -144 -52 -101 -132 -196 -229 -270 -63 -49 -98 -109 -120 -206 -9 -38 -27 -99 -41 -135 -58 -158 -97 -323 -105 -445 -6 -98 -13 -133 -36 -190 -27 -66 -29 -79 -30 -220 -1 -247 -14 -444 -35 -536 -10 -48 -19 -120 -19 -160 -1 -41 -7 -103 -15 -139 -17 -76 -19 -171 -5 -255 5 -33 12 -139 15 -235 7 -201 2 -181 67 -327 45 -103 50 -123 58 -220 4 -60 16 -128 25 -153 9 -25 25 -89 36 -144 13 -64 34 -125 59 -175 21 -42 55 -122 75 -176 149 -400 298 -523 660 -546 77 -5 176 -14 220 -20 144 -19 187 -5 370 125 72 51 171 121 222 155 51 34 127 94 170 132 43 39 106 86 140 105 85 48 134 107 180 217 37 90 50 107 154 203 24 22 57 65 73 95 16 30 59 97 97 149 37 52 97 151 133 219 37 68 75 135 85 150 10 14 50 89 89 166 38 77 98 179 133 227 35 48 76 105 92 128 31 46 67 64 110 54 49 -10 203 -167 262 -265 63 -107 97 -144 210 -228 50 -38 116 -96 146 -129 84 -92 225 -197 335 -248 54 -25 140 -74 191 -110 198 -138 405 -176 590 -108 54 20 135 48 180 63 96 33 130 53 146 88 19 43 -10 55 -118 48 -108 -7 -295 23 -495 81 -163 47 -245 87 -355 175 -49 39 -133 103 -185 142 -229 170 -485 447 -561 607 -23 47 -56 110 -75 141 -69 114 -93 352 -46 454 13 28 32 91 43 140 33 153 186 360 354 479 96 69 135 111 225 246 24 36 101 124 171 197 266 276 314 420 307 931 -4 272 -25 368 -121 558 -91 179 -324 365 -499 399 -42 8 -112 24 -154 35 -96 25 -196 25 -289 -1z m130 -394 c216 -26 344 -87 457 -220 120 -141 133 -178 132 -380 0 -241 -13 -281 -174 -565 -75 -131 -141 -209 -221 -260 -86 -56 -113 -34 -194 160 -31 74 -63 152 -72 173 -35 81 -88 104 -134 58 -33 -33 -41 -166 -18 -316 25 -167 6 -273 -78 -438 -150 -294 -302 -322 -423 -77 -112 226 -228 328 -386 338 -142 9 -191 -37 -214 -206 -13 -94 -7 -135 40 -300 46 -159 94 -204 285 -268 125 -42 245 -184 316 -374 43 -115 -8 -300 -125 -450 -62 -79 -84 -128 -106 -235 -26 -125 -47 -164 -145 -265 -98 -101 -152 -179 -212 -307 -25 -52 -66 -122 -93 -157 -26 -34 -69 -96 -95 -137 -27 -41 -94 -122 -150 -180 -69 -73 -113 -129 -138 -177 -47 -89 -76 -123 -146 -174 -31 -22 -94 -79 -141 -127 -130 -131 -376 -253 -523 -259 -153 -7 -261 65 -336 221 -68 143 -120 266 -140 328 -12 36 -46 108 -77 160 -129 220 -143 269 -154 539 -9 229 -22 329 -52 410 -63 170 -61 157 -54 287 7 143 26 256 61 372 29 97 31 143 10 221 -22 81 -19 130 12 196 25 54 27 70 28 189 1 149 34 284 105 425 20 41 51 121 69 176 25 82 39 111 74 150 23 27 58 69 77 94 18 25 60 73 93 107 46 47 74 90 116 175 54 108 59 115 126 163 39 28 104 84 145 126 62 63 92 85 170 122 58 28 119 67 158 102 79 69 98 79 192 98 99 21 126 31 185 76 81 61 153 92 341 146 49 15 136 47 194 72 257 112 427 153 631 153 136 0 168 3 240 24 137 39 116 39 344 11z M15550 6456 c-234 -52 -410 -158 -472 -283 -67 -136 -40 -381 50 -466 54 -50 236 -157 311 -182 199 -66 196 -202 -7 -292 -108 -47 -358 -105 -432 -99 -265 22 -464 19 -540 -9 -193 -70 -195 -70 -289 -52 -77 15 -93 15 -156 2 -83 -18 -137 -19 -185 -4 -23 7 -179 10 -448 10 -340 -1 -425 2 -480 14 -129 30 -268 77 -356 121 -184 93 -268 76 -383 -74 -81 -108 -260 -213 -390 -231 -119 -17 -664 -18 -693 -2 -81 44 -102 85 -120 234 -18 146 -85 244 -187 275 -122 36 -179 -3 -366 -253 -149 -199 -176 -228 -257 -272 -36 -20 -108 -66 -160 -103 -123 -86 -168 -112 -264 -150 -43 -17 -128 -55 -189 -85 -166 -83 -181 -75 -192 100 -14 233 -32 284 -127 370 -122 110 -268 140 -538 111 -80 -9 -179 -16 -220 -16 -41 0 -127 -11 -192 -24 -64 -14 -170 -28 -235 -32 -131 -7 -103 -14 -308 74 -35 14 -96 29 -145 35 -158 18 -185 33 -271 148 -47 63 -218 127 -302 114 -23 -4 -79 -27 -123 -51 -45 -24 -109 -50 -143 -58 -89 -21 -120 -43 -176 -126 -30 -45 -70 -89 -99 -110 -97 -69 -320 -288 -358 -352 -44 -74 -192 -518 -208 -623 -29 -201 -7 -381 63 -521 24 -49 52 -114 62 -144 25 -78 41 -92 209 -174 165 -81 157 -78 303 -100 56 -8 139 -25 185 -37 144 -38 483 -21 618 30 43 17 550 351 598 395 30 26 128 229 147 304 20 75 19 276 -1 367 -9 39 -17 126 -19 195 -2 79 -9 143 -19 174 -31 96 -11 124 142 196 125 57 160 60 299 20 98 -27 123 -31 212 -28 101 3 101 3 133 -30 32 -32 33 -34 28 -105 -16 -261 -1 -360 64 -422 234 -225 318 -285 394 -285 104 0 363 125 476 230 67 61 79 68 144 83 119 27 185 67 294 178 90 92 105 103 219 159 169 83 207 82 372 -13 220 -127 225 -128 426 -139 302 -15 589 23 748 100 45 22 110 46 145 55 81 20 219 56 283 73 42 12 61 12 135 -1 48 -8 150 -15 235 -15 83 -1 186 -2 230 -2 44 -1 148 6 230 16 83 10 224 21 315 25 184 9 314 33 455 84 98 35 180 40 366 22 79 -7 94 -5 195 23 228 65 363 74 472 33 211 -81 340 -64 497 65 89 74 113 88 195 119 106 40 140 66 232 173 125 146 189 188 438 287 142 57 148 58 275 66 133 7 164 15 274 67 112 54 125 53 264 -17 257 -130 592 -151 965 -62 75 18 103 19 389 12 282 -8 316 -7 398 11 50 10 162 23 250 29 268 17 465 47 465 71 0 12 -85 71 -123 85 -18 6 -91 12 -168 12 -75 1 -180 8 -235 16 -132 20 -410 20 -484 0 -82 -22 -134 -19 -292 20 -386 95 -398 100 -419 179 -41 153 -50 174 -90 220 -78 89 -174 113 -329 81 -254 -52 -429 -159 -480 -295 -36 -97 -60 -112 -189 -121 -61 -5 -152 -18 -203 -31 -165 -39 -279 -26 -351 41 -40 38 -40 38 -47 139 -15 211 -162 368 -401 426 -77 19 -257 20 -339 2z m257 -468 c64 -60 -8 -139 -117 -129 -29 3 -80 48 -80 71 0 17 31 49 65 68 35 20 106 14 132 -10z m-8804 -1102 c29 -14 92 -50 140 -81 54 -34 128 -70 190 -91 155 -54 212 -96 317 -234 98 -128 104 -152 75 -292 -46 -222 -113 -349 -200 -378 -20 -6 -58 -40 -100 -86 -136 -151 -278 -190 -640 -173 -284 13 -390 44 -498 147 -99 94 -62 310 119 687 32 65 56 97 134 175 53 52 123 136 157 185 121 179 177 204 306 141z M20047 5760 c-110 -18 -279 -68 -300 -89 -12 -12 81 -66 148 -86 98 -30 154 -30 281 0 113 28 122 28 233 18 64 -6 154 -8 201 -6 76 4 93 2 155 -23 70 -28 72 -28 310 -28 262 -1 233 4 364 -66 33 -17 68 -25 142 -31 81 -6 112 -14 181 -45 46 -20 120 -51 166 -69 104 -42 167 -82 227 -146 65 -69 71 -90 90 -299 24 -255 29 -240 -143 -408 -183 -178 -273 -227 -473 -257 -113 -17 -139 -28 -221 -91 -31 -24 -86 -57 -122 -74 -36 -16 -91 -47 -123 -69 -56 -38 -61 -39 -163 -45 -58 -3 -129 -12 -159 -21 -159 -48 -142 -181 24 -180 72 1 106 17 185 90 60 56 68 59 155 70 27 4 76 15 110 26 33 10 117 26 187 35 71 8 158 24 195 35 38 11 118 33 178 48 251 65 534 200 641 306 71 70 96 127 119 268 8 51 23 132 31 180 10 52 14 106 10 134 -8 60 -86 224 -140 293 -23 30 -61 82 -83 115 -60 88 -150 166 -274 238 -52 30 -234 79 -473 128 -160 32 -160 32 -250 10 -114 -27 -133 -27 -206 3 -89 37 -104 38 -384 42 -144 2 -360 5 -481 8 -186 4 -238 2 -338 -14z M17097 2895 c-20 -7 -49 -24 -66 -37 -102 -87 -373 -150 -547 -127 -127 17 -537 -33 -718 -87 -44 -14 -121 -29 -170 -34 -49 -6 -122 -22 -160 -36 -39 -15 -118 -41 -176 -60 -58 -18 -150 -49 -205 -68 -55 -19 -158 -44 -230 -56 -71 -11 -159 -30 -195 -40 -36 -11 -108 -22 -160 -25 -52 -4 -144 -15 -205 -26 -60 -11 -166 -26 -235 -34 -78 -9 -158 -26 -212 -44 -48 -16 -125 -37 -170 -46 -46 -9 -144 -32 -218 -50 -74 -18 -169 -38 -210 -44 -355 -53 -545 -193 -510 -375 31 -164 99 -226 263 -241 72 -7 79 -6 372 69 121 31 252 61 290 67 64 10 433 126 480 152 11 6 80 11 155 12 152 2 203 16 315 86 108 68 347 141 490 149 97 6 133 12 185 34 43 18 98 30 160 36 52 5 124 19 158 30 77 24 101 25 189 4 82 -19 127 -14 218 24 40 17 106 35 153 41 46 6 120 22 165 36 156 47 302 77 397 81 456 19 588 28 690 45 63 11 138 24 166 29 53 9 95 3 234 -35 84 -22 194 -16 345 20 61 15 151 31 200 36 50 5 134 14 187 21 54 6 131 11 170 11 358 -3 549 -1 698 8 369 23 467 23 561 0 105 -25 203 -27 392 -5 175 20 225 16 356 -26 104 -34 104 -34 225 -17 109 16 131 16 220 3 61 -9 133 -12 186 -9 66 4 109 1 186 -15 98 -21 282 -54 379 -67 28 -3 91 -17 140 -30 50 -13 135 -29 190 -35 55 -5 129 -19 165 -31 177 -58 309 3 359 166 37 118 24 191 -46 266 -90 96 -168 118 -463 129 -174 6 -243 13 -305 28 -156 40 -404 57 -785 52 -58 -1 -208 6 -334 16 -220 16 -236 16 -378 -2 -138 -17 -162 -17 -331 -3 -241 19 -563 18 -692 -1 -123 -18 -487 -18 -606 0 -58 9 -109 10 -178 4 -53 -5 -177 -9 -276 -9 -206 -1 -484 -18 -535 -34 -19 -6 -88 -11 -153 -11 -80 0 -145 -6 -205 -20 -122 -27 -191 -5 -249 79 -35 50 -67 63 -116 46z"/>
</svg>